<svg width="28" height="21" viewBox="0 0 28 21" fill="none" xmlns="http://www.w3.org/2000/svg">
<g clip-path="url(#clip0_740_27)">
<path d="M0 17.0803C0 17.9054 0.327777 18.6967 0.911223 19.2802C1.49467 19.8636 2.28599 20.1914 3.11111 20.1914H24.8889C25.714 20.1914 26.5053 19.8636 27.0888 19.2802C27.6722 18.6967 28 17.9054 28 17.0803V13.1914H0V17.0803Z" fill="#138808"/>
<path d="M28 6.96875V3.07986C28 2.25474 27.6722 1.46342 27.0888 0.879973C26.5053 0.296527 25.714 -0.03125 24.8889 -0.03125H3.11111C2.28599 -0.03125 1.49467 0.296527 0.911223 0.879973C0.327777 1.46342 0 2.25474 0 3.07986L0 6.96875H28Z" fill="#FF9933"/>
<path d="M0 6.70996H28V13.451H0V6.70996Z" fill="#F7F7F7"/>
<path d="M14 13.191C15.7182 13.191 17.1111 11.7981 17.1111 10.0799C17.1111 8.36164 15.7182 6.96875 14 6.96875C12.2818 6.96875 10.8889 8.36164 10.8889 10.0799C10.8889 11.7981 12.2818 13.191 14 13.191Z" fill="#000080"/>
<path d="M14 12.7051C15.4497 12.7051 16.625 11.5298 16.625 10.0801C16.625 8.63033 15.4497 7.45508 14 7.45508C12.5503 7.45508 11.375 8.63033 11.375 10.0801C11.375 11.5298 12.5503 12.7051 14 12.7051Z" fill="#F7F7F7"/>
<path d="M14.0778 9.10798L14 9.61353L13.9222 9.10798L14 7.59131L14.0778 9.10798ZM13.356 7.67609L13.6733 9.16086L13.8794 9.62909L13.8234 9.1212L13.356 7.67609ZM12.7556 7.92498L13.4462 9.27675L13.7667 9.67575L13.5816 9.19898L12.7556 7.92498ZM12.2399 8.32009L13.2572 9.44786L13.6702 9.75042L13.3677 9.33742L12.2399 8.32009ZM11.8448 8.83575L13.1188 9.66175L13.5956 9.84686L13.1966 9.52642L11.8448 8.83575ZM11.5959 9.4362L13.041 9.90364L13.5489 9.95964L13.0807 9.75353L11.5959 9.4362ZM11.5111 10.0802L13.0278 10.158L13.5333 10.0802L13.0278 10.0024L11.5111 10.0802ZM11.5959 10.7242L13.0807 10.4069L13.5489 10.2008L13.041 10.2568L11.5959 10.7242ZM11.8448 11.3246L13.1966 10.634L13.5956 10.3135L13.1188 10.4986L11.8448 11.3246ZM12.2399 11.8403L13.3677 10.823L13.6702 10.41L13.2572 10.7125L12.2399 11.8403ZM12.7556 12.2354L13.5816 10.9614L13.7667 10.4846L13.4462 10.8836L12.7556 12.2354ZM13.356 12.4843L13.8234 11.0392L13.8794 10.5313L13.6733 10.9995L13.356 12.4843ZM14 12.5691L14.0778 11.0524L14 10.5469L13.9222 11.0524L14 12.5691ZM14.644 12.4843L14.3267 10.9995L14.1206 10.5313L14.1766 11.0392L14.644 12.4843ZM15.2444 12.2354L14.5538 10.8836L14.2333 10.4846L14.4184 10.9614L15.2444 12.2354ZM15.7601 11.8403L14.7428 10.7125L14.3298 10.41L14.6323 10.823L15.7601 11.8403ZM16.1552 11.3246L14.8812 10.4986L14.4044 10.3135L14.8034 10.634L16.1552 11.3246ZM16.4041 10.7242L14.959 10.2568L14.4511 10.2008L14.9193 10.4069L16.4041 10.7242ZM16.4889 10.0802L14.9722 10.0024L14.4667 10.0802L14.9722 10.158L16.4889 10.0802ZM16.4041 9.4362L14.9193 9.75353L14.4511 9.95964L14.959 9.90364L16.4041 9.4362ZM16.1552 8.83575L14.8034 9.52642L14.4044 9.84686L14.8812 9.66175L16.1552 8.83575ZM15.7601 8.32009L14.6323 9.33742L14.3298 9.75042L14.7428 9.44786L15.7601 8.32009ZM15.2444 7.92498L14.4184 9.19898L14.2333 9.67575L14.5538 9.27675L15.2444 7.92498ZM14.644 7.67609L14.1766 9.1212L14.1206 9.62909L14.3267 9.16086L14.644 7.67609Z" fill="#6666B3"/>
<path d="M13.6578 7.63728C13.7437 7.63728 13.8133 7.56764 13.8133 7.48173C13.8133 7.39582 13.7437 7.32617 13.6578 7.32617C13.5718 7.32617 13.5022 7.39582 13.5022 7.48173C13.5022 7.56764 13.5718 7.63728 13.6578 7.63728Z" fill="#000080"/>
<path d="M12.9966 7.81453C13.0825 7.81453 13.1522 7.74488 13.1522 7.65897C13.1522 7.57306 13.0825 7.50342 12.9966 7.50342C12.9107 7.50342 12.8411 7.57306 12.8411 7.65897C12.8411 7.74488 12.9107 7.81453 12.9966 7.81453Z" fill="#000080"/>
<path d="M12.404 8.15584C12.4899 8.15584 12.5595 8.08619 12.5595 8.00028C12.5595 7.91437 12.4899 7.84473 12.404 7.84473C12.3181 7.84473 12.2484 7.91437 12.2484 8.00028C12.2484 8.08619 12.3181 8.15584 12.404 8.15584Z" fill="#000080"/>
<path d="M11.9202 8.63972C12.0061 8.63972 12.0758 8.57008 12.0758 8.48417C12.0758 8.39826 12.0061 8.32861 11.9202 8.32861C11.8343 8.32861 11.7646 8.39826 11.7646 8.48417C11.7646 8.57008 11.8343 8.63972 11.9202 8.63972Z" fill="#000080"/>
<path d="M11.5788 9.2325C11.6647 9.2325 11.7343 9.16285 11.7343 9.07694C11.7343 8.99103 11.6647 8.92139 11.5788 8.92139C11.4929 8.92139 11.4232 8.99103 11.4232 9.07694C11.4232 9.16285 11.4929 9.2325 11.5788 9.2325Z" fill="#000080"/>
<path d="M11.4014 9.89363C11.4873 9.89363 11.557 9.82399 11.557 9.73807C11.557 9.65216 11.4873 9.58252 11.4014 9.58252C11.3155 9.58252 11.2458 9.65216 11.2458 9.73807C11.2458 9.82399 11.3155 9.89363 11.4014 9.89363Z" fill="#000080"/>
<path d="M11.4014 10.5782C11.4873 10.5782 11.557 10.5086 11.557 10.4226C11.557 10.3367 11.4873 10.2671 11.4014 10.2671C11.3155 10.2671 11.2458 10.3367 11.2458 10.4226C11.2458 10.5086 11.3155 10.5782 11.4014 10.5782Z" fill="#000080"/>
<path d="M11.5788 11.2393C11.6647 11.2393 11.7343 11.1697 11.7343 11.0838C11.7343 10.9979 11.6647 10.9282 11.5788 10.9282C11.4929 10.9282 11.4232 10.9979 11.4232 11.0838C11.4232 11.1697 11.4929 11.2393 11.5788 11.2393Z" fill="#000080"/>
<path d="M11.9202 11.8316C12.0061 11.8316 12.0758 11.762 12.0758 11.6761C12.0758 11.5902 12.0061 11.5205 11.9202 11.5205C11.8343 11.5205 11.7646 11.5902 11.7646 11.6761C11.7646 11.762 11.8343 11.8316 11.9202 11.8316Z" fill="#000080"/>
<path d="M12.404 12.3155C12.4899 12.3155 12.5595 12.2459 12.5595 12.1599C12.5595 12.074 12.4899 12.0044 12.404 12.0044C12.3181 12.0044 12.2484 12.074 12.2484 12.1599C12.2484 12.2459 12.3181 12.3155 12.404 12.3155Z" fill="#000080"/>
<path d="M12.9966 12.6568C13.0825 12.6568 13.1522 12.5872 13.1522 12.5013C13.1522 12.4153 13.0825 12.3457 12.9966 12.3457C12.9107 12.3457 12.8411 12.4153 12.8411 12.5013C12.8411 12.5872 12.9107 12.6568 12.9966 12.6568Z" fill="#000080"/>
<path d="M13.6578 12.8345C13.7437 12.8345 13.8133 12.7649 13.8133 12.679C13.8133 12.5931 13.7437 12.5234 13.6578 12.5234C13.5718 12.5234 13.5022 12.5931 13.5022 12.679C13.5022 12.7649 13.5718 12.8345 13.6578 12.8345Z" fill="#000080"/>
<path d="M14.3422 12.8345C14.4281 12.8345 14.4978 12.7649 14.4978 12.679C14.4978 12.5931 14.4281 12.5234 14.3422 12.5234C14.2563 12.5234 14.1866 12.5931 14.1866 12.679C14.1866 12.7649 14.2563 12.8345 14.3422 12.8345Z" fill="#000080"/>
<path d="M15.0033 12.6568C15.0892 12.6568 15.1589 12.5872 15.1589 12.5013C15.1589 12.4153 15.0892 12.3457 15.0033 12.3457C14.9174 12.3457 14.8478 12.4153 14.8478 12.5013C14.8478 12.5872 14.9174 12.6568 15.0033 12.6568Z" fill="#000080"/>
<path d="M15.596 12.3155C15.6819 12.3155 15.7515 12.2459 15.7515 12.1599C15.7515 12.074 15.6819 12.0044 15.596 12.0044C15.5101 12.0044 15.4404 12.074 15.4404 12.1599C15.4404 12.2459 15.5101 12.3155 15.596 12.3155Z" fill="#000080"/>
<path d="M16.0797 11.8316C16.1657 11.8316 16.2353 11.762 16.2353 11.6761C16.2353 11.5902 16.1657 11.5205 16.0797 11.5205C15.9938 11.5205 15.9242 11.5902 15.9242 11.6761C15.9242 11.762 15.9938 11.8316 16.0797 11.8316Z" fill="#000080"/>
<path d="M16.4212 11.2393C16.5071 11.2393 16.5767 11.1697 16.5767 11.0838C16.5767 10.9979 16.5071 10.9282 16.4212 10.9282C16.3353 10.9282 16.2656 10.9979 16.2656 11.0838C16.2656 11.1697 16.3353 11.2393 16.4212 11.2393Z" fill="#000080"/>
<path d="M16.5985 10.5782C16.6845 10.5782 16.7541 10.5086 16.7541 10.4226C16.7541 10.3367 16.6845 10.2671 16.5985 10.2671C16.5126 10.2671 16.443 10.3367 16.443 10.4226C16.443 10.5086 16.5126 10.5782 16.5985 10.5782Z" fill="#000080"/>
<path d="M16.5985 9.89363C16.6845 9.89363 16.7541 9.82399 16.7541 9.73807C16.7541 9.65216 16.6845 9.58252 16.5985 9.58252C16.5126 9.58252 16.443 9.65216 16.443 9.73807C16.443 9.82399 16.5126 9.89363 16.5985 9.89363Z" fill="#000080"/>
<path d="M16.4212 9.2325C16.5071 9.2325 16.5767 9.16285 16.5767 9.07694C16.5767 8.99103 16.5071 8.92139 16.4212 8.92139C16.3353 8.92139 16.2656 8.99103 16.2656 9.07694C16.2656 9.16285 16.3353 9.2325 16.4212 9.2325Z" fill="#000080"/>
<path d="M16.0797 8.63972C16.1657 8.63972 16.2353 8.57008 16.2353 8.48417C16.2353 8.39826 16.1657 8.32861 16.0797 8.32861C15.9938 8.32861 15.9242 8.39826 15.9242 8.48417C15.9242 8.57008 15.9938 8.63972 16.0797 8.63972Z" fill="#000080"/>
<path d="M15.596 8.15584C15.6819 8.15584 15.7515 8.08619 15.7515 8.00028C15.7515 7.91437 15.6819 7.84473 15.596 7.84473C15.5101 7.84473 15.4404 7.91437 15.4404 8.00028C15.4404 8.08619 15.5101 8.15584 15.596 8.15584Z" fill="#000080"/>
<path d="M15.0033 7.81453C15.0892 7.81453 15.1589 7.74488 15.1589 7.65897C15.1589 7.57306 15.0892 7.50342 15.0033 7.50342C14.9174 7.50342 14.8478 7.57306 14.8478 7.65897C14.8478 7.74488 14.9174 7.81453 15.0033 7.81453Z" fill="#000080"/>
<path d="M14.3422 7.63728C14.4281 7.63728 14.4978 7.56764 14.4978 7.48173C14.4978 7.39582 14.4281 7.32617 14.3422 7.32617C14.2563 7.32617 14.1866 7.39582 14.1866 7.48173C14.1866 7.56764 14.2563 7.63728 14.3422 7.63728Z" fill="#000080"/>
<path d="M13.9999 10.7804C14.3865 10.7804 14.6999 10.467 14.6999 10.0804C14.6999 9.69377 14.3865 9.38037 13.9999 9.38037C13.6133 9.38037 13.2999 9.69377 13.2999 10.0804C13.2999 10.467 13.6133 10.7804 13.9999 10.7804Z" fill="#000080"/>
</g>
<defs>
<clipPath id="clip0_740_27">
<rect width="28" height="20.16" fill="white"/>
</clipPath>
</defs>
</svg>
